<?xml version="1.0" encoding="utf-8"?>
<svg version="1.1" xmlns:xlink="http://www.w3.org/1999/xlink" width="54px" height="20px" xmlns="http://www.w3.org/2000/svg">
  <defs>
    <mask fill="white" id="clip583">
      <path d="M 0 16  L 0 4  C 0 1.76  1.46215384615384 0  3.32307692307692 0  L 50.6769230769231 0  C 52.5378461538462 0  54 1.76  54 4  L 54 16  C 54 18.24  52.5378461538462 20  50.6769230769231 20  L 45.2967032967033 20  L 3.32307692307692 20  C 1.46215384615384 20  0 18.24  0 16  Z " fill-rule="evenodd" />
    </mask>
  </defs>
  <g transform="matrix(1 0 0 1 -138 -53 )">
    <path d="M 0 16  L 0 4  C 0 1.76  1.46215384615384 0  3.32307692307692 0  L 50.6769230769231 0  C 52.5378461538462 0  54 1.76  54 4  L 54 16  C 54 18.24  52.5378461538462 20  50.6769230769231 20  L 45.2967032967033 20  L 3.32307692307692 20  C 1.46215384615384 20  0 18.24  0 16  Z " fill-rule="nonzero" fill="#d7d7d7" stroke="none" fill-opacity="0.290196078431373" transform="matrix(1 0 0 1 138 53 )" />
    <path d="M 0 16  L 0 4  C 0 1.76  1.46215384615384 0  3.32307692307692 0  L 50.6769230769231 0  C 52.5378461538462 0  54 1.76  54 4  L 54 16  C 54 18.24  52.5378461538462 20  50.6769230769231 20  L 45.2967032967033 20  L 3.32307692307692 20  C 1.46215384615384 20  0 18.24  0 16  Z " stroke-width="2" stroke="#bfdeff" fill="none" transform="matrix(1 0 0 1 138 53 )" mask="url(#clip583)" />
  </g>
</svg>